<mxfile host="app.diagrams.net" modified="2024-06-09T13:03:18.687Z" agent="Mozilla/5.0 (Macintosh; Intel Mac OS X 10_15_7) AppleWebKit/537.36 (KHTML, like Gecko) Chrome/125.0.0.0 Safari/537.36" version="24.5.2" etag="8kzGBfZs6P3Euj9iDmMG" type="github">
  <diagram name="Page-1" id="Auj2j37J0kR2W5HDAG3R">
    <mxGraphModel>
      <root>
        <mxCell id="0" />
        <mxCell id="1" parent="0" />
      </root>
    </mxGraphModel>
  </diagram>
</mxfile>
